<?xml version="1.0" encoding="utf-8"?>
<!-- Generator: Adobe Illustrator 23.0.3, SVG Export Plug-In . SVG Version: 6.00 Build 0)  -->
<svg version="1.1" id="Layer_1" xmlns="http://www.w3.org/2000/svg" xmlns:xlink="http://www.w3.org/1999/xlink" x="0px" y="0px"
	 viewBox="0 0 100 100" style="enable-background:new 0 0 100 100;" xml:space="preserve">
<style type="text/css">
	.st0{fill-rule:evenodd;clip-rule:evenodd;}
	.st1{display:none;fill-rule:evenodd;clip-rule:evenodd;}
</style>
<path class="st0" d="M94.9,26.3l2,45.1c1,21.1-21.3,35.2-40.1,25.5L16.7,75.9c-18.8-9.8-20-36.2-2.1-47.5L52.7,4.3
	C70.5-7,94,5.2,94.9,26.3z"/>
<path class="st1" d="M98.2,38.4l-16,43.4c-7.5,20.3-33.7,24.6-47.1,7.8L6.3,53.5C-7.2,36.6,2.2,11.2,23.1,7.7l44.8-7.4
	C88.9-3.1,105.7,18,98.2,38.4z"/>
<path class="st1" d="M75.4,16.7L96.7,57c10,18.9-4,41.6-25.1,40.9l-45.1-1.5C5.5,95.8-7,72.2,4.2,54L28,15.1
	C39.1-3.1,65.5-2.2,75.4,16.7z"/>
</svg>
